<?xml version="1.0" encoding="UTF-8" standalone="no"?>
<svg
   xmlns:dc="http://purl.org/dc/elements/1.1/"
   xmlns:cc="http://creativecommons.org/ns#"
   xmlns:rdf="http://www.w3.org/1999/02/22-rdf-syntax-ns#"
   xmlns:svg="http://www.w3.org/2000/svg"
   xmlns="http://www.w3.org/2000/svg"
   xmlns:sodipodi="http://sodipodi.sourceforge.net/DTD/sodipodi-0.dtd"
   xmlns:inkscape="http://www.inkscape.org/namespaces/inkscape"
   version="1.1"
   x="0px"
   y="0px"
   viewBox="0 0 595.3 1052.375"
   style="enable-background:new 0 0 595.3 841.9;"
   xml:space="preserve"
   id="svg2"
   inkscape:version="0.91 r13725"
   sodipodi:docname="logo geel.svg"><metadata
     id="metadata42"><rdf:RDF><cc:Work
         rdf:about=""><dc:format>image/svg+xml</dc:format><dc:type
           rdf:resource="http://purl.org/dc/dcmitype/StillImage" /><dc:title></dc:title></cc:Work></rdf:RDF></metadata><defs
     id="defs40" /><sodipodi:namedview
     pagecolor="#ffffff"
     bordercolor="#666666"
     borderopacity="1"
     objecttolerance="10"
     gridtolerance="10"
     guidetolerance="10"
     inkscape:pageopacity="0"
     inkscape:pageshadow="2"
     inkscape:window-width="1536"
     inkscape:window-height="801"
     id="namedview38"
     showgrid="false"
     inkscape:zoom="0.63428797"
     inkscape:cx="24.472359"
     inkscape:cy="649.53944"
     inkscape:window-x="-8"
     inkscape:window-y="-8"
     inkscape:window-maximized="1"
     inkscape:current-layer="svg2" /><g
     id="g4"
     style="fill:#ffcc00;fill-opacity:1"><path
       d="M130.2,750.5c0.2,0,0.5,0,0.8-0.1C130.7,750.5,130.4,750.5,130.2,750.5z"
       id="path6"
       style="fill:#ffcc00;fill-opacity:1" /><path
       d="M130.2,750.5c-0.2,0-0.5,0-0.7,0c0,0,0,0-0.1,0C129.5,750.6,129.8,750.6,130.2,750.5z"
       id="path8"
       style="fill:#ffcc00;fill-opacity:1" /><path
       d="M139.4,749.9c-1.2,0.1-3,0.2-5.4,0.4C135.9,750.1,138,750,139.4,749.9z"
       id="path10"
       style="fill:#ffcc00;fill-opacity:1" /><path
       d="M134,750.3c-1.1,0.1-2.2,0.2-3,0.2C132.1,750.4,133.1,750.3,134,750.3z"
       id="path12"
       style="fill:#ffcc00;fill-opacity:1" /><path
       d="M205.7,594.5c3,8.7,5.6,19-6.7,33.7c-0.2,0.2-0.1,0.2-0.1,0.1c-1.3,1.3-19.8,19-27.4,19   c2.8-8.5,6.1-23.3,4-27.3c-0.1-0.1-0.1-0.3-0.2-0.4c-0.2-0.4-0.3-0.9-0.6-1.2l-0.3-0.4c0,0-0.2,0.5-0.5,0.8c-0.2,0.3-0.4,0.7-0.6,1   c-8,16.1-32.2,24.3-45.6,21.6c-2.1-0.4-4.1-2.4-2.4-3.8c23.7-18.6,7.9-36.6,17.6-53.9c0.2-0.4,4.1-5.4,4.9-6.1   c13.5-13.1,22.3-10.2,31.1-7.9c-20.8-16.9-44.4-29-73.1-21.8c-18.5,4.6-25.8,8.5-38.5,24c-1.2,1.4-2.2,2.9-3.3,4.3   c-19.9,25.4-4.3,39-49.1,65.8c-11.5,12.5,41.5,11.2,68.7-4.5c0.3-0.2,0.5,0.4,0.2,0.6c-22.1,16.6-37.7,45.8-40.4,71.6   c-1.1,10.6-3.6,44.3,6.5,43c6.6-0.8,12.1-15.6,13.9-17.9c7.3-9.2,11.9-11.6,27.6-14.9c19.4-4.1,36,1.2,54.4-8.1   c0.6-0.3,1.3,0.1,1.3,0.8c0.8,12.9-8.8,24.4-19.8,33.1c-1.1,0.8-1.3,2.5-0.5,3.6c0.5,0.7,1.4,1.3,2.6,1.2   c47.4-3.3,103-44.4,103.4-95.9C233.1,629.2,221.4,611.1,205.7,594.5z"
       id="path14"
       style="fill:#ffcc00;fill-opacity:1" /><path
       d="M140.7,749.8c-0.2,0-0.4,0-0.7,0C140.3,749.8,140.5,749.8,140.7,749.8z"
       id="path16"
       style="fill:#ffcc00;fill-opacity:1" /><path
       d="M327.5,582.2c-32.3,17.5-55.3,25.5-71,24.4c11.7,32.5,27.7,63.5-22.4,121.5c-5.1,5.9,3.7,12,10.9,9.1   c86.7-35.1,107.9-96,116.9-134.7c3.4-14.6,4.2-29.1,2.7-42.6C352.5,567.9,340.1,575.4,327.5,582.2z"
       id="path18"
       style="fill:#ffcc00;fill-opacity:1" /><path
       d="M43.9,552.7c53.8-54.6,86-41.1,119.3-32.1c-2.3-15.6,3.8-39.1,18.7-72.8c5.8-13.2,12.3-26.1,19.3-38.7   c-13.6-0.5-28,1.5-42.3,6.1C121,427.3,62.1,453.3,34,542.6C31.6,550,38.5,558.3,43.9,552.7z"
       id="path20"
       style="fill:#ffcc00;fill-opacity:1" /><path
       d="M176.9,530.5L176.9,530.5l0.4,0.4l1.9,1.8l-6.7,7.3c-2.6,2.8-2.4,7.1,0.4,9.7l55.6,51.3   c2.8,2.6,7.1,2.4,9.7-0.4l6.2-6.7c12.8,7.8,42.2-3.6,73.8-20.7c68.7-37.2,126.9-91.1,170.3-156c54.4-81.3,120.1-197.6,82-236l0,0   c-0.1-0.1-0.3-0.2-0.4-0.3c-0.1-0.1-0.2-0.3-0.4-0.4l0,0c-40.5-36-152.9,36-231.1,94.9c-62.4,46.9-113,108-146.4,178.7   C176.1,488.1,166.2,519.3,176.9,530.5z M448,266.3c10.3-11.4,27.9-12.4,39.3-2.1c11.4,10.3,12.4,27.9,2.1,39.3   c-10.3,11.4-27.9,12.4-39.3,2.1C438.7,295.4,437.8,277.8,448,266.3z M371.9,337.2c13.2-14.7,35.8-15.9,50.5-2.7   c14.7,13.2,15.9,35.8,2.7,50.5c-13.2,14.7-35.8,15.9-50.5,2.7C359.9,374.5,358.7,351.9,371.9,337.2z"
       id="path22"
       style="fill:#ffcc00;fill-opacity:1" /><path
       d="M426.4,150.7l12.4,30.8l16.9-28.6l33.1-2.3l-21.9-24.9l8.1-32.2l-30.5,13.2L416.4,89l3.1,33.1L394,143.4   L426.4,150.7z M432.7,115.4l10.7,6.7l11.6-5l-3.1,12.2l8.3,9.5l-12.6,0.9l-6.4,10.8l-4.7-11.7l-12.3-2.8l9.7-8.1L432.7,115.4z"
       id="path24"
       style="fill:#ffcc00;fill-opacity:1" /><path
       d="M532.4,480.1l-29.5,7.4l-22.8-20l-2.1,30.3l-26.2,15.5l28.2,11.3l6.6,29.6l19.5-23.3l30.2,2.8L520.3,508   L532.4,480.1z M500.3,516.5L494,524l-2.1-9.5l-9-3.6l8.4-5l0.7-9.8l7.3,6.5l9.5-2.4l-3.9,8.9l5.2,8.3L500.3,516.5z"
       id="path26"
       style="fill:#ffcc00;fill-opacity:1" /><polygon
       points="453.3,548.6 439,552.2 428,542.5 427,557.2 414.3,564.6 427.9,570.1 431.1,584.4 440.6,573.2    455.2,574.5 447.4,562.1  "
       id="polygon28"
       style="fill:#ffcc00;fill-opacity:1" /><polygon
       points="388.1,194 393.6,207.7 401.1,195 415.7,194 406,183 409.6,168.8 396.1,174.6 383.7,166.8    385.1,181.4 373.8,190.8  "
       id="polygon30"
       style="fill:#ffcc00;fill-opacity:1" /><polygon
       points="331.1,166.7 336.6,180.4 344.1,167.7 358.7,166.7 349,155.7 352.6,141.5 339.1,147.3 326.7,139.5    328.1,154.1 316.8,163.5  "
       id="polygon32"
       style="fill:#ffcc00;fill-opacity:1" /></g></svg>