<?xml version="1.0" encoding="UTF-8" standalone="no"?>
<svg
   xmlns:dc="http://purl.org/dc/elements/1.1/"
   xmlns:cc="http://creativecommons.org/ns#"
   xmlns:rdf="http://www.w3.org/1999/02/22-rdf-syntax-ns#"
   xmlns:svg="http://www.w3.org/2000/svg"
   xmlns="http://www.w3.org/2000/svg"
   xmlns:sodipodi="http://sodipodi.sourceforge.net/DTD/sodipodi-0.dtd"
   xmlns:inkscape="http://www.inkscape.org/namespaces/inkscape"
   version="1.1"
   x="0px"
   y="0px"
   viewBox="0 0 100 125"
   id="svg2"
   inkscape:version="0.91 r13725"
   sodipodi:docname="mail.svg">
  <metadata
     id="metadata16">
    <rdf:RDF>
      <cc:Work
         rdf:about="">
        <dc:format>image/svg+xml</dc:format>
        <dc:type
           rdf:resource="http://purl.org/dc/dcmitype/StillImage" />
        <dc:title></dc:title>
      </cc:Work>
    </rdf:RDF>
  </metadata>
  <defs
     id="defs14" />
  <sodipodi:namedview
     pagecolor="#ffffff"
     bordercolor="#666666"
     borderopacity="1"
     objecttolerance="10"
     gridtolerance="10"
     guidetolerance="10"
     inkscape:pageopacity="0"
     inkscape:pageshadow="2"
     inkscape:window-width="1536"
     inkscape:window-height="801"
     id="namedview12"
     showgrid="false"
     inkscape:zoom="1.888"
     inkscape:cx="-20.444915"
     inkscape:cy="62.5"
     inkscape:window-x="-8"
     inkscape:window-y="-8"
     inkscape:window-maximized="1"
     inkscape:current-layer="svg2" />
  <g
     transform="translate(0,-952.36218)"
     id="g4">
    <path
       style="text-indent:0;text-transform:none;direction:ltr;block-progression:tb;baseline-shift:baseline;color:#000000;enable-background:accumulate;"
       d="m 13.09375,973.36215 c -3.8422501,0 -7.0937501,3.13367 -7.0937501,6.99997 l 0,44.00008 c 0,3.8664 3.2515,7 7.0937501,7 l 73.8125,0 c 3.84225,0 7.09375,-3.1336 7.09375,-7 l 0,-44.00008 c 0,-3.8663 -3.2515,-6.99997 -7.09375,-6.99997 l -73.8125,0 z m 3.65625,5.99997 66.5,0 -32.1875,28.74998 c -0.43854,0.392 -1.68646,0.392 -2.125,0 L 16.75,979.36212 z M 12,983.14342 34.46875,1003.2371 12,1021.8309 12,983.14342 z m 76,0 0,38.68748 L 65.53125,1003.2371 88,983.14342 z m -49,24.12498 5.9375,5.3125 c 2.91308,2.6034 7.21192,2.6034 10.125,0 l 5.9375,-5.3125 21.875,18.0938 -65.75,0 L 39,1007.2684 z"
       fill="#000000"
       fill-opacity="1"
       stroke="none"
       marker="none"
       visibility="visible"
       display="inline"
       overflow="visible"
       id="path6" />
  </g>
</svg>
